<?xml version="1.0" standalone="no"?><!DOCTYPE svg PUBLIC "-//W3C//DTD SVG 1.1//EN" "http://www.w3.org/Graphics/SVG/1.1/DTD/svg11.dtd"><svg t="1708341715948" class="icon" viewBox="0 0 1024 1024" version="1.1" xmlns="http://www.w3.org/2000/svg" p-id="1200" xmlns:xlink="http://www.w3.org/1999/xlink" width="200" height="200"><path d="M504.9856 712.7552h50.7392v269.312h-50.7392z" fill="#F55651" p-id="1201"></path><path d="M528.9984 768.6656v213.4016h22.8864v-224.8704l-22.8864 11.4688z" fill="#E3413F" p-id="1202"></path><path d="M555.7248 992.3072h-50.7392a10.24 10.24 0 0 1-10.24-10.24v-269.312a10.24 10.24 0 0 1 10.24-10.24h50.7392a10.24 10.24 0 0 1 10.24 10.24v269.312a10.24 10.24 0 0 1-10.24 10.24z m-40.4992-20.48h30.2592v-248.832h-30.2592z" fill="#4B2254" p-id="1203"></path><path d="M146.3296 134.6048a18.0224 18.0224 0 0 1 30.72-11.3664l158.1056 161.536 533.0432 545.0752a18.0224 18.0224 0 0 0 30.72-14.1312L871.936 499.712 526.1824 465.92l-37.2736 14.3872L128 408.1664z" fill="#FACF5D" p-id="1204"></path><path d="M613.12 81.3568L407.8592 850.0224l284.1088-200.3968-356.8128-364.8512 277.9648-203.4176z" fill="#F55651" p-id="1205"></path><path d="M157.952 809.216L817.9712 164.864a17.9712 17.9712 0 0 0-7.8848-30.2592l-197.0176-53.248L407.8592 849.92l-238.08-9.9328a18.0224 18.0224 0 0 1-11.8272-30.7712z" fill="#FACF5D" p-id="1206"></path><path d="M128.1024 408.1664l225.8944 209.6128 320.0512-312.4224L871.936 499.712l-345.7536-33.9968-37.2736 14.3872-360.8064-71.936z" fill="#F55651" p-id="1207"></path><path d="M899.0208 815.7184L871.936 499.712l-39.1168-3.84-1.8432 5.888 26.4704 266.6496-123.5456-87.04 5.9392 17.5104 128.3584 131.2768a18.0224 18.0224 0 0 0 30.8224-14.4384zM810.0864 134.6048l-7.3216-1.9968-5.7856 2.3552-281.2416 272.0768 8.1408 8.4992 25.1904 11.8272 268.9024-262.5024a17.9712 17.9712 0 0 0-7.8848-30.2592zM501.76 498.176l-33.024 7.5264L378.88 813.4144l-217.0368-8.1408-3.9936 3.9424a18.0224 18.0224 0 0 0 11.8272 30.72L407.8592 849.92zM177.152 123.2384a17.2544 17.2544 0 0 0-8.192-4.8128l-1.792 5.7856 256.9216 308.7872-241.2032-17.4592 10.9056 5.7344 295.1168 58.8288 27.0336-10.24-180.7872-185.088zM605.7472 473.4976l-79.5648-7.7824-10.24 3.9424 36.7616 37.5808 53.0432-33.7408z" fill="#F8B031" p-id="1208"></path><path d="M520.4992 474.3168l-18.3808 22.6304-14.7456 55.3472 0.5632 5.7856s42.4448 8.4992 72.9088-18.3296c39.9872 48.9472 76.8 103.2704 76.8 103.2704l-213.248 154.0608-15.36 52.0704 282.8288-199.68zM674.048 305.3568l-109.7728 107.1616-19.6096 3.0208-14.2848 46.08s39.168 14.5408 71.168 6.7584a119.0912 119.0912 0 0 0-21.9136-52.4288L673.4336 358.4l132.0448 128 66.048 12.8512zM335.1552 284.7744l164.096 167.7824-1.6896-25.1904-5.12-7.68 21.3504-4.1472s14.4384-2.1504 16.7936-29.0816A107.52 107.52 0 0 0 476.16 396.0832L400.896 287.8976l186.9312-137.216 14.5408-29.0816 10.7008-40.2432zM353.9968 617.7792l114.7904-112.0768-12.8-32.2048-33.7408-6.7072s4.1472 30.72 15.36 45.2096l-82.4832 58.9312-151.2448-147.6608L133.12 412.8256z" fill="#E3413F" p-id="1209"></path><path d="M880.9472 845.568a28.1088 28.1088 0 0 1-20.0704-8.5504l-347.5456-355.3792-20.736 7.9872a10.24 10.24 0 0 1-5.6832 0.512l-360.8064-71.68a10.24 10.24 0 0 1-8.192-10.752l18.2272-273.5616A28.2112 28.2112 0 0 1 184.32 116.0704l334.08 341.6064 3.9424-1.536A10.24 10.24 0 0 1 527.36 455.68l345.7536 33.9968a10.24 10.24 0 0 1 9.216 9.2672l27.0848 316.0576a28.5184 28.5184 0 0 1-28.2624 30.72zM537.6 477.1328l337.92 345.5488a7.7824 7.7824 0 0 0 13.312-6.0928l-26.368-307.5584zM138.9056 399.9232l349.0816 69.5296 9.7792-3.5328-327.68-335.2576a7.3216 7.3216 0 0 0-8.192-1.8432 7.4752 7.4752 0 0 0-5.12 6.7584z" fill="#4B2254" p-id="1210"></path><path d="M407.8592 860.16a10.24 10.24 0 0 1-9.8816-12.8512l101.4272-379.904L327.68 291.84a10.24 10.24 0 0 1 1.28-15.36l277.9136-203.3664a10.24 10.24 0 0 1 15.9744 10.9056L522.24 461.4144l177.0496 181.0432a10.24 10.24 0 0 1-1.4336 15.36l-284.1088 200.6016a10.24 10.24 0 0 1-5.888 1.7408z m108.2368-375.7568L424.96 825.3952l251.2384-177.2032zM350.72 286.0544l154.8288 158.3104 90.1632-337.5616z" fill="#4B2254" p-id="1211"></path><path d="M407.8592 860.16h-0.4096l-238.1312-10.24a28.2112 28.2112 0 0 1-18.5344-48.384L501.76 459.4688l101.632-380.7232a10.24 10.24 0 0 1 12.3904-7.0656l197.0176 53.248a28.2624 28.2624 0 0 1 12.3392 47.4624l-305.2544 297.984-102.4 382.5152a10.24 10.24 0 0 1-9.6256 7.2704z m83.3536-361.984l-326.0928 318.3616a7.7312 7.7312 0 0 0 5.12 13.312L400.0768 839.68z m-333.2608 311.04z m462.3872-715.264l-90.112 337.5104 280.6272-273.92a7.68 7.68 0 0 0 2.048-7.5264 7.424 7.424 0 0 0-5.4784-5.5296z" fill="#4B2254" p-id="1212"></path><path d="M353.9968 628.0192a10.24 10.24 0 0 1-6.9632-2.7136L121.1392 415.6928a10.24 10.24 0 0 1-2.1504-12.1856 10.24 10.24 0 0 1 11.1104-5.12l357.888 71.3216 5.4784-2.0992 173.4144-169.3184a10.24 10.24 0 0 1 14.336 0l197.888 194.56a10.24 10.24 0 0 1-8.192 17.5104L527.36 476.16l-22.8352 8.8576-143.36 140.1344a10.24 10.24 0 0 1-7.168 2.8672zM161.6384 425.3184l192.2048 178.3296 119.1424-116.2752z m372.5312 30.72l309.8624 30.72-169.984-166.9632z" fill="#4B2254" p-id="1213"></path><path d="M513.5872 471.7568m-56.2176 0a56.2176 56.2176 0 1 0 112.4352 0 56.2176 56.2176 0 1 0-112.4352 0Z" fill="#FFFFFF" p-id="1214"></path><path d="M500.0192 422.2464s34.8672 9.1136 39.9872 42.9056c4.6592 30.72-23.1424 51.2-32.9216 55.7568 18.6368 3.6352 64.8704-11.4688 61.44-61.44-2.9184-44.7488-57.9584-42.4448-68.5056-37.2224z" fill="#F2F0E7" p-id="1215"></path><path d="M513.5872 538.2144a66.56 66.56 0 1 1 66.56-66.56 66.56 66.56 0 0 1-66.56 66.56z m0-112.64a46.08 46.08 0 1 0 46.08 46.08 46.08 46.08 0 0 0-46.08-45.8752z" fill="#4B2254" p-id="1216"></path></svg>